name Walk2.mot
datacolumns 19
datarows 22
range 3.47300000 3.49400000
endheader

                time	   L_ground_force_vx	   L_ground_force_vy	   L_ground_force_vz	   L_ground_force_px	   L_ground_force_py	   L_ground_force_pz	   R_ground_force_vx	   R_ground_force_vy	   R_ground_force_vz	   R_ground_force_px	   R_ground_force_py	   R_ground_force_pz	   L_ground_torque_x	   L_ground_torque_y	   L_ground_torque_z	   R_ground_torque_x	   R_ground_torque_y	   R_ground_torque_z	
          3.47300000	          0.10786953	          0.31863288	          0.00453671	          0.00000170	          0.00000000	          0.00001948	         -5.55140231	        889.74955060	        -57.15899147	          0.17289809	          0.00000000	          0.13598012	          0.00000000	         -0.00027422	          0.00000000	          0.00000000	         12.92861486	          0.00000000	
          3.47400000	          0.10547961	          0.31363189	          0.00497796	         -0.00004231	          0.00000000	          0.00000842	         -5.31238243	        889.60963432	        -56.95812545	          0.17302937	          0.00000000	          0.13598152	          0.00000000	         -0.00023216	          0.00000000	          0.00000000	         12.86844843	          0.00000000	
          3.47500000	          0.10289430	          0.30787096	          0.00536289	         -0.00008243	          0.00000000	         -0.00000174	         -5.07412025	        889.48252592	        -56.75630065	          0.17316120	          0.00000000	          0.13598302	          0.00000000	         -0.00019280	          0.00000000	          0.00000000	         12.80857647	          0.00000000	
          3.47600000	          0.10013999	          0.30143648	          0.00569482	         -0.00011882	          0.00000000	         -0.00001102	         -4.83643263	        889.36865522	        -56.55403791	          0.17329358	          0.00000000	          0.13598466	          0.00000000	         -0.00015605	          0.00000000	          0.00000000	         12.74900487	          0.00000000	
          3.47700000	          0.09724146	          0.29441002	          0.00597701	         -0.00015167	          0.00000000	         -0.00001947	         -4.59913416	        889.26842397	        -56.35185442	          0.17342650	          0.00000000	          0.13598647	          0.00000000	         -0.00012185	          0.00000000	          0.00000000	         12.68973811	          0.00000000	
          3.47800000	          0.09422192	          0.28686848	          0.00621262	         -0.00018116	          0.00000000	         -0.00002713	         -4.36203750	        889.18220665	        -56.15026262	          0.17355997	          0.00000000	          0.13598850	          0.00000000	         -0.00009009	          0.00000000	          0.00000000	         12.63077961	          0.00000000	
          3.47900000	          0.09110307	          0.27888414	          0.00640473	         -0.00020745	          0.00000000	         -0.00003404	         -4.12495381	        889.11035126	        -55.94976932	          0.17369397	          0.00000000	          0.13599079	          0.00000000	         -0.00006069	          0.00000000	          0.00000000	         12.57213208	          0.00000000	
          3.48000000	          0.08790514	          0.27052482	          0.00655630	         -0.00023072	          0.00000000	         -0.00004023	         -3.88769312	        889.05318060	        -55.75087485	          0.17382849	          0.00000000	          0.13599338	          0.00000000	         -0.00003356	          0.00000000	          0.00000000	         12.51379789	          0.00000000	
          3.48100000	          0.08464694	          0.26185400	          0.00667020	         -0.00025115	          0.00000000	         -0.00004575	         -3.65006454	        889.01099363	        -55.55407205	          0.17396350	          0.00000000	          0.13599631	          0.00000000	         -0.00000861	          0.00000000	          0.00000000	         12.45577931	          0.00000000	
          3.48200000	          0.08134590	          0.25293092	          0.00674922	         -0.00026888	          0.00000000	         -0.00005062	         -3.41187634	        888.98406625	        -55.35984497	          0.17409901	          0.00000000	          0.13599962	          0.00000000	          0.00001425	          0.00000000	          0.00000000	         12.39807851	          0.00000000	
          3.48300000	          0.07801815	          0.24381075	          0.00679602	         -0.00028410	          0.00000000	         -0.00005488	         -3.17293597	        888.97265130	        -55.16866719	          0.17423499	          0.00000000	          0.13600335	          0.00000000	          0.00003512	          0.00000000	          0.00000000	         12.34069736	          0.00000000	
          3.48400000	          0.07467852	          0.23454471	          0.00681315	         -0.00029694	          0.00000000	         -0.00005858	         -2.93305019	        888.97697771	        -54.98100001	          0.17437145	          0.00000000	          0.13600755	          0.00000000	          0.00005407	          0.00000000	          0.00000000	         12.28363706	          0.00000000	
          3.48500000	          0.07134065	          0.22518022	          0.00680308	         -0.00030758	          0.00000000	         -0.00006174	         -2.69202555	        888.99724982	        -54.79729049	          0.17450836	          0.00000000	          0.13601224	          0.00000000	          0.00007121	          0.00000000	          0.00000000	         12.22689771	          0.00000000	
          3.48600000	          0.06801700	          0.21576104	          0.00676817	         -0.00031614	          0.00000000	         -0.00006440	         -2.44966914	        889.03364723	        -54.61796967	          0.17464571	          0.00000000	          0.13601746	          0.00000000	          0.00008663	          0.00000000	          0.00000000	         12.17047777	          0.00000000	
          3.48700000	          0.06471892	          0.20632740	          0.00671064	         -0.00032278	          0.00000000	         -0.00006659	         -2.20578962	        889.08632540	        -54.44345109	          0.17478349	          0.00000000	          0.13602325	          0.00000000	          0.00010041	          0.00000000	          0.00000000	         12.11437356	          0.00000000	
          3.48800000	          0.06145669	          0.19691618	          0.00663265	         -0.00032764	          0.00000000	         -0.00006834	         -1.96019841	        889.15541655	        -54.27412963	          0.17492168	          0.00000000	          0.13602963	          0.00000000	          0.00011263	          0.00000000	          0.00000000	         12.05857892	          0.00000000	
          3.48900000	          0.05823961	          0.18756105	          0.00653623	         -0.00033085	          0.00000000	         -0.00006968	         -1.71271073	        889.24103062	        -54.11038061	          0.17506028	          0.00000000	          0.13603664	          0.00000000	          0.00012339	          0.00000000	          0.00000000	         12.00308512	          0.00000000	
          3.49000000	          0.05507598	          0.17829258	          0.00642330	         -0.00033253	          0.00000000	         -0.00007065	         -1.46314638	        889.34325567	        -53.95255924	          0.17519926	          0.00000000	          0.13604430	          0.00000000	          0.00013277	          0.00000000	          0.00000000	         11.94788091	          0.00000000	
          3.49100000	          0.05197322	          0.16913842	          0.00629571	         -0.00033282	          0.00000000	         -0.00007126	         -1.21133020	        889.46215776	        -53.80100030	          0.17533861	          0.00000000	          0.13605263	          0.00000000	          0.00014085	          0.00000000	          0.00000000	         11.89295298	          0.00000000	
          3.49200000	          0.04893787	          0.16012346	          0.00615517	         -0.00033182	          0.00000000	         -0.00007156	         -0.95709229	        889.59778033	        -53.65601798	          0.17547831	          0.00000000	          0.13606166	          0.00000000	          0.00014771	          0.00000000	          0.00000000	         11.83828647	          0.00000000	
          3.49300000	          0.04597567	          0.15126991	          0.00600332	         -0.00032965	          0.00000000	         -0.00007156	         -0.70026827	        889.75014388	        -53.51790611	          0.17561833	          0.00000000	          0.13607141	          0.00000000	          0.00015343	          0.00000000	          0.00000000	         11.78386567	          0.00000000	
          3.49400000	          0.04309161	          0.14259752	          0.00584170	         -0.00032643	          0.00000000	         -0.00007129	         -0.44069965	        889.91924618	        -53.38693840	          0.17575865	          0.00000000	          0.13608189	          0.00000000	          0.00015808	          0.00000000	          0.00000000	         11.72967453	          0.00000000	
